<svg width="30" height="30" viewBox="0 0 30 30" fill="none" xmlns="http://www.w3.org/2000/svg">
<path d="M2.5 2.5H4.675C6.025 2.5 7.0875 3.6625 6.975 5L5.9375 17.45C5.89699 17.9323 5.95711 18.4178 6.11404 18.8757C6.27098 19.3336 6.52131 19.7539 6.84917 20.1099C7.17704 20.466 7.57529 20.7501 8.01869 20.9442C8.46209 21.1383 8.94098 21.2382 9.425 21.2375H22.7375C24.5375 21.2375 26.1125 19.7625 26.25 17.975L26.925 8.6C27.075 6.525 25.5 4.8375 23.4125 4.8375H7.275M11.25 10H26.25M20.3125 27.5C20.7269 27.5 21.1243 27.3354 21.4174 27.0424C21.7104 26.7493 21.875 26.3519 21.875 25.9375C21.875 25.5231 21.7104 25.1257 21.4174 24.8326C21.1243 24.5396 20.7269 24.375 20.3125 24.375C19.8981 24.375 19.5007 24.5396 19.2076 24.8326C18.9146 25.1257 18.75 25.5231 18.75 25.9375C18.75 26.3519 18.9146 26.7493 19.2076 27.0424C19.5007 27.3354 19.8981 27.5 20.3125 27.5ZM10.3125 27.5C10.7269 27.5 11.1243 27.3354 11.4174 27.0424C11.7104 26.7493 11.875 26.3519 11.875 25.9375C11.875 25.5231 11.7104 25.1257 11.4174 24.8326C11.1243 24.5396 10.7269 24.375 10.3125 24.375C9.8981 24.375 9.50067 24.5396 9.20765 24.8326C8.91462 25.1257 8.75 25.5231 8.75 25.9375C8.75 26.3519 8.91462 26.7493 9.20765 27.0424C9.50067 27.3354 9.8981 27.5 10.3125 27.5Z" stroke="#002959" stroke-width="1.4" stroke-miterlimit="10" stroke-linecap="round" stroke-linejoin="round"/>
</svg>
